<?xml version="1.0" standalone="no"?>
<!DOCTYPE svg PUBLIC "-//W3C//DTD SVG 20010904//EN"
 "http://www.w3.org/TR/2001/REC-SVG-20010904/DTD/svg10.dtd">
<svg version="1.0" xmlns="http://www.w3.org/2000/svg"
 width="474.000000pt" height="484.000000pt" viewBox="0 0 474.000000 484.000000"
 preserveAspectRatio="xMidYMid meet">

<g transform="translate(0.000000,484.000000) scale(0.100000,-0.100000)"
fill="#000000" stroke="none">
<path d="M2635 4810 c-3 -6 1 -7 9 -4 18 7 21 14 7 14 -6 0 -13 -4 -16 -10z"/>
<path d="M2984 4630 c0 -13 4 -16 10 -10 7 7 7 13 0 20 -6 6 -10 3 -10 -10z"/>
<path d="M1979 4613 c-13 -16 -12 -17 4 -4 16 13 21 21 13 21 -2 0 -10 -8 -17
-17z"/>
<path d="M3050 4551 c5 -11 15 -23 21 -27 6 -3 3 5 -6 20 -20 30 -30 35 -15 7z"/>
<path d="M1956 4192 c-3 -5 1 -9 9 -9 8 0 12 4 9 9 -3 4 -7 8 -9 8 -2 0 -6 -4
-9 -8z"/>
<path d="M1971 4154 c6 -7 16 -11 21 -8 11 7 3 17 -18 20 -12 2 -13 -1 -3 -12z"/>
<path d="M2020 4106 c0 -2 8 -10 18 -17 15 -13 16 -12 3 4 -13 16 -21 21 -21
13z"/>
<path d="M2190 3990 c8 -5 20 -10 25 -10 6 0 3 5 -5 10 -8 5 -19 10 -25 10 -5
0 -3 -5 5 -10z"/>
<path d="M2563 3925 c0 -7 6 -11 14 -8 7 3 13 6 13 8 0 2 -6 5 -13 8 -8 3 -14
-1 -14 -8z"/>
<path d="M995 3811 c-185 -34 -299 -92 -418 -213 -93 -94 -127 -166 -127 -270
0 -179 114 -331 325 -433 86 -41 195 -75 244 -75 35 0 94 -36 121 -75 14 -19
46 -51 72 -71 56 -42 198 -110 251 -119 59 -11 50 23 -23 82 -87 69 -142 158
-111 177 5 4 48 17 96 31 47 14 107 36 133 49 126 64 242 183 288 295 83 200
-43 424 -309 552 -168 80 -358 104 -542 70z"/>
<path d="M2553 2828 c-20 -27 -21 -51 -7 -249 8 -112 14 -214 12 -228 l-3 -26
-14 25 c-8 14 -45 99 -81 190 -61 149 -69 165 -91 165 -40 0 -37 -60 12 -195
66 -188 92 -270 86 -277 -16 -15 -80 29 -169 115 -53 52 -101 91 -107 87 -6
-3 -11 -19 -11 -35 0 -20 21 -53 74 -119 109 -133 176 -254 176 -318 0 -8 21
-77 47 -152 l46 -136 8 -400 c7 -364 20 -719 35 -947 l6 -88 -386 0 -386 0 0
49 c0 77 28 398 50 581 12 91 25 199 30 241 5 43 17 110 26 150 15 68 21 78
74 131 73 72 208 171 282 209 59 30 70 47 43 69 -25 21 -68 14 -144 -24 -106
-54 -139 -46 -161 35 -15 53 -7 100 51 308 53 188 58 228 33 238 -23 8 -32 -5
-69 -103 -41 -110 -104 -249 -110 -243 -2 3 7 79 20 169 29 198 31 258 9 267
-33 12 -47 -24 -81 -209 -18 -101 -36 -190 -39 -198 -10 -26 -20 15 -38 160
-23 184 -22 182 -49 178 -36 -5 -38 -54 -12 -330 6 -65 5 -78 -7 -78 -22 0
-72 58 -112 132 -43 78 -61 97 -78 80 -15 -15 -4 -57 46 -167 57 -128 65 -177
68 -400 3 -200 3 -200 -30 -317 -21 -74 -46 -210 -68 -365 -43 -310 -49 -345
-81 -465 l-26 -98 -218 0 c-174 0 -219 3 -219 13 0 7 4 38 10 68 5 30 19 160
30 289 22 246 56 438 89 499 10 20 41 79 69 131 57 106 79 133 170 209 36 31
62 61 62 72 0 28 -14 24 -86 -25 -122 -84 -142 -73 -72 39 89 144 111 205 73
205 -7 0 -43 -47 -80 -105 -36 -58 -71 -108 -77 -111 -13 -8 -5 29 33 164 32
109 34 157 9 157 -20 0 -33 -30 -76 -171 -55 -179 -64 -173 -44 31 10 99 7
135 -10 135 -18 0 -32 -44 -60 -194 -28 -157 -38 -185 -73 -223 -34 -37 -61
-29 -109 31 -45 57 -71 75 -101 68 -24 -5 -22 -17 16 -66 18 -24 55 -87 82
-142 68 -134 67 -163 -8 -384 -46 -136 -63 -207 -96 -404 -23 -132 -44 -250
-47 -263 l-6 -23 -344 0 -344 0 0 -120 0 -120 2370 0 2370 0 0 120 0 120 -353
0 -353 0 -21 38 c-41 73 -65 149 -114 367 -45 198 -56 233 -109 345 -33 69
-64 150 -69 180 -6 30 -19 105 -30 166 -20 113 -18 185 9 284 13 47 13 107 -1
116 -16 9 -26 -10 -50 -92 -21 -71 -61 -136 -74 -122 -4 4 -12 44 -17 90 -14
117 -36 230 -47 241 -5 5 -17 7 -27 3 -14 -5 -16 -15 -10 -62 15 -126 19 -237
9 -231 -6 4 -36 69 -68 146 -61 148 -84 183 -109 162 -17 -15 -13 -30 58 -220
26 -68 45 -126 43 -128 -5 -5 -90 110 -140 188 -40 64 -54 76 -70 60 -16 -16
2 -59 85 -212 76 -140 100 -220 80 -264 -17 -37 -33 -39 -118 -19 -86 20 -127
13 -132 -23 -3 -18 4 -23 49 -32 63 -14 215 -80 283 -124 42 -27 55 -43 88
-113 33 -70 44 -116 84 -335 39 -217 57 -288 99 -391 7 -17 -14 -18 -353 -18
l-360 0 -5 23 c-9 33 -43 346 -72 657 -15 151 -35 334 -46 405 -11 72 -23 189
-26 260 -5 118 -4 134 16 177 39 86 209 299 287 359 61 47 69 77 23 93 -40 14
-68 2 -142 -63 -119 -103 -158 -104 -205 -3 l-27 57 0 275 c0 151 -4 281 -8
288 -13 20 -47 14 -56 -10 -5 -13 -12 -59 -16 -103 -8 -96 -41 -305 -49 -312
-10 -10 -15 20 -36 227 -11 113 -25 220 -31 238 -11 33 -38 43 -56 20z"/>
</g>
</svg>
