<?xml version="1.0" standalone="no"?>
<!DOCTYPE svg PUBLIC "-//W3C//DTD SVG 20010904//EN"
 "http://www.w3.org/TR/2001/REC-SVG-20010904/DTD/svg10.dtd">
<svg version="1.0" xmlns="http://www.w3.org/2000/svg"
 width="256.000000pt" height="256.000000pt" viewBox="0 0 256.000000 256.000000"
 preserveAspectRatio="xMidYMid meet">

<g transform="translate(0.000000,256.000000) scale(0.100000,-0.100000)"
fill="#000000" stroke="none">
<path d="M1100 2541 c-143 -29 -209 -47 -312 -89 -340 -138 -616 -442 -722
-794 -35 -118 -66 -291 -66 -373 0 -81 39 -297 71 -394 129 -390 454 -706 844
-819 369 -107 740 -50 1070 166 83 55 239 202 302 286 102 136 175 293 220
473 25 98 27 126 27 288 0 162 -2 190 -27 288 -64 256 -171 442 -359 623 -102
98 -194 163 -314 223 -234 115 -523 163 -734 122z m366 -56 c207 -36 398 -124
559 -258 99 -82 149 -147 114 -147 -6 0 -43 26 -82 59 -151 122 -302 202 -472
248 -92 25 -116 27 -295 27 -183 1 -201 -1 -295 -27 -336 -93 -598 -313 -750
-628 -71 -149 -96 -256 -102 -439 -10 -311 55 -515 254 -794 23 -32 29 -56 15
-56 -17 0 -99 90 -147 161 -210 313 -260 688 -140 1047 64 191 153 331 302
479 184 181 437 305 688 336 80 10 271 6 351 -8z m-41 -115 c241 -35 448 -137
620 -305 152 -149 246 -312 302 -524 23 -84 26 -116 26 -261 0 -145 -3 -177
-26 -261 -54 -204 -149 -372 -291 -515 -143 -142 -310 -237 -515 -292 -85 -22
-116 -25 -261 -25 -145 0 -176 3 -261 25 -213 57 -378 152 -524 302 -246 253
-353 587 -301 936 35 227 143 439 310 606 181 181 377 276 656 318 52 7 198 5
265 -4z"/>
</g>
</svg>
