<?xml version="1.0" standalone="no"?>
<!DOCTYPE svg PUBLIC "-//W3C//DTD SVG 20010904//EN"
 "http://www.w3.org/TR/2001/REC-SVG-20010904/DTD/svg10.dtd">
<svg version="1.0" xmlns="http://www.w3.org/2000/svg"
 width="300.000000pt" height="224.000000pt" viewBox="0 0 300.000000 224.000000"
 preserveAspectRatio="xMidYMid meet">

<g transform="translate(0.000000,224.000000) scale(0.100000,-0.100000)"
fill="#000000" stroke="none">
<path d="M589 1534 c-63 -22 -137 -80 -176 -138 l-33 -48 0 -137 c0 -133 1
-138 28 -182 39 -61 105 -115 171 -140 80 -30 196 -24 274 15 71 34 139 110
167 184 18 46 21 72 18 137 -8 132 -66 224 -180 285 -54 29 -75 34 -143 37
-54 2 -95 -2 -126 -13z m179 -163 c69 -35 102 -88 102 -161 0 -136 -137 -222
-252 -158 -99 56 -119 209 -37 285 60 55 123 67 187 34z"/>
<path d="M1435 1436 c-33 -40 -127 -153 -209 -250 l-149 -177 24 -25 c13 -14
41 -40 63 -57 l39 -31 36 41 c20 22 85 97 145 167 60 70 112 125 116 124 4 -2
64 -70 135 -153 70 -82 135 -158 144 -168 16 -17 20 -15 77 34 32 29 59 58 59
65 0 13 -404 504 -414 504 -3 -1 -33 -34 -66 -74z"/>
<path d="M2050 1200 l0 -290 280 0 280 0 0 80 0 80 -200 0 -200 0 0 130 0 130
200 0 200 0 0 80 0 80 -280 0 -280 0 0 -290z"/>
<path d="M575 765 c-48 -47 -22 -135 40 -135 62 0 88 88 40 135 -13 14 -31 25
-40 25 -9 0 -27 -11 -40 -25z m69 -21 c20 -53 -8 -104 -46 -83 -34 19 -20 99
17 99 13 0 26 -7 29 -16z"/>
<path d="M726 769 c-52 -41 -25 -139 39 -139 62 0 88 88 40 135 -29 30 -45 31
-79 4z m68 -25 c12 -31 6 -73 -11 -83 -39 -21 -68 30 -47 83 8 21 50 21 58 0z"/>
<path d="M866 774 c-32 -32 -17 -65 37 -78 15 -3 27 -13 27 -22 0 -23 -29 -28
-50 -9 -22 20 -36 15 -27 -9 16 -41 107 -26 107 18 0 27 -14 41 -52 50 -16 3
-28 13 -28 21 0 17 35 21 45 5 9 -15 25 -12 25 5 0 16 -30 35 -54 35 -8 0 -22
-7 -30 -16z"/>
<path d="M1000 768 c-44 -47 -14 -138 45 -138 60 0 87 89 40 135 -30 31 -58
32 -85 3z m68 -20 c32 -32 -1 -108 -38 -88 -25 13 -33 42 -21 74 11 28 39 34
59 14z"/>
<path d="M1305 778 c-29 -16 -35 -28 -35 -74 0 -27 6 -46 18 -57 21 -19 57
-22 67 -7 5 8 11 8 19 1 18 -15 23 -7 18 34 -4 29 -8 35 -28 35 -13 0 -24 -4
-24 -10 0 -5 7 -10 15 -10 21 0 19 -17 -5 -30 -15 -8 -24 -6 -40 10 -23 23
-24 29 -10 64 10 28 30 33 60 14 29 -18 39 1 11 23 -27 22 -38 23 -66 7z"/>
<path d="M2218 779 c-21 -12 -24 -52 -5 -66 6 -6 24 -13 40 -17 15 -3 27 -13
27 -22 0 -23 -29 -28 -50 -9 -23 21 -39 12 -24 -13 20 -32 88 -27 99 7 9 30
-4 47 -46 64 -23 9 -38 21 -34 27 8 13 42 13 50 0 9 -15 25 -12 25 5 0 15 -30
35 -52 35 -7 0 -21 -5 -30 -11z"/>
<path d="M381 748 c1 -45 22 -111 36 -115 7 -3 14 11 18 34 12 74 22 82 30 26
6 -49 19 -72 31 -60 3 3 14 37 24 76 15 59 16 71 4 71 -8 0 -16 -16 -20 -40
-9 -56 -21 -58 -28 -5 -8 51 -32 61 -42 18 -13 -65 -21 -70 -28 -20 -8 53 -26
64 -25 15z"/>
<path d="M1132 708 c3 -83 21 -99 26 -23 l3 50 27 -50 c41 -74 52 -70 52 19 0
44 -4 76 -10 76 -5 0 -10 -21 -10 -46 0 -52 -9 -51 -36 5 -12 25 -26 41 -37
41 -16 0 -18 -8 -15 -72z"/>
<path d="M1470 727 c0 -64 20 -97 59 -97 16 0 34 6 40 14 13 15 21 89 13 118
-9 37 -22 16 -22 -36 0 -35 -5 -58 -15 -66 -26 -22 -45 5 -45 66 0 41 -4 54
-15 54 -11 0 -15 -13 -15 -53z"/>
<path d="M1612 708 c3 -83 21 -99 26 -24 l3 50 30 -52 c16 -29 34 -52 39 -52
6 0 10 33 10 75 0 82 -17 104 -22 28 l-3 -48 -25 48 c-15 30 -31 47 -42 47
-17 0 -19 -8 -16 -72z"/>
<path d="M1752 708 c2 -40 8 -73 13 -73 6 0 11 33 13 73 2 60 0 72 -13 72 -13
0 -15 -12 -13 -72z"/>
<path d="M1801 768 c1 -25 44 -132 54 -135 6 -2 21 27 33 65 26 81 26 82 8 82
-9 0 -17 -15 -21 -38 -11 -65 -21 -69 -36 -13 -7 29 -18 51 -26 51 -7 0 -13
-6 -12 -12z"/>
<path d="M1939 778 c0 -2 -1 -34 -2 -73 l-2 -70 49 0 c31 0 51 5 54 13 2 8 -9
12 -37 12 -34 0 -41 3 -41 20 0 16 7 20 36 20 23 0 34 4 32 12 -3 7 -18 12
-34 13 -45 0 -38 29 9 33 55 5 45 22 -13 22 -27 0 -50 -1 -51 -2z"/>
<path d="M2062 708 c2 -46 7 -73 16 -76 8 -2 12 7 12 28 0 28 3 31 28 28 21
-2 28 -9 30 -30 2 -16 8 -28 14 -28 7 0 9 15 6 38 -3 20 -2 46 2 57 14 37 -6
55 -61 55 l-50 0 3 -72z m86 30 c3 -14 -3 -18 -27 -18 -25 0 -31 4 -31 21 0
16 5 20 27 17 17 -2 29 -10 31 -20z"/>
<path d="M2330 704 c0 -56 3 -75 13 -72 8 3 13 30 15 76 2 60 0 72 -13 72 -12
0 -15 -14 -15 -76z"/>
<path d="M2370 771 c0 -5 10 -11 23 -13 20 -3 22 -9 23 -63 2 -85 24 -86 24
-1 0 59 2 66 20 66 11 0 20 5 20 10 0 6 -25 10 -55 10 -30 0 -55 -4 -55 -9z"/>
<path d="M2500 775 c0 -3 9 -23 20 -45 11 -22 20 -53 20 -70 0 -40 22 -35 25
6 1 16 12 49 24 72 18 36 19 42 6 42 -9 0 -22 -15 -30 -32 l-14 -33 -11 33
c-7 17 -18 32 -26 32 -8 0 -14 -2 -14 -5z"/>
</g>
</svg>
